<mxfile host="www.draw.io" modified="2020-02-19T09:29:33.765Z" agent="Mozilla/5.0 (Windows NT 10.0; Win64; x64) AppleWebKit/537.36 (KHTML, like Gecko) Chrome/79.0.3945.130 Safari/537.36" etag="8FSLM1MEYGMso9tuY7tB" version="12.7.1" type="github">
  <diagram id="BPzR6P75vJ8h0UpeYIW8" name="Page-1">
    <mxGraphModel dx="1422" dy="794" grid="1" gridSize="10" guides="1" tooltips="1" connect="1" arrows="1" fold="1" page="1" pageScale="1" pageWidth="827" pageHeight="1169" math="0" shadow="0">
      <root>
        <mxCell id="0" />
        <mxCell id="1" parent="0" />
        <mxCell id="DF0IoFT1eUAcfcoszbH7-1" value="«interface»&lt;br&gt;&lt;b&gt;IController&lt;/b&gt;" style="html=1;" parent="1" vertex="1">
          <mxGeometry x="160" y="350" width="110" height="50" as="geometry" />
        </mxCell>
        <mxCell id="DF0IoFT1eUAcfcoszbH7-2" value="«interface»&lt;br&gt;&lt;b&gt;IView&lt;/b&gt;" style="html=1;" parent="1" vertex="1">
          <mxGeometry x="370" y="350" width="110" height="50" as="geometry" />
        </mxCell>
        <mxCell id="DF0IoFT1eUAcfcoszbH7-3" value="«interface»&lt;br&gt;&lt;b&gt;IModel&lt;/b&gt;" style="html=1;" parent="1" vertex="1">
          <mxGeometry x="570" y="350" width="110" height="50" as="geometry" />
        </mxCell>
        <mxCell id="DF0IoFT1eUAcfcoszbH7-27" style="edgeStyle=orthogonalEdgeStyle;rounded=0;orthogonalLoop=1;jettySize=auto;html=1;entryX=1;entryY=0.5;entryDx=0;entryDy=0;" parent="1" source="DF0IoFT1eUAcfcoszbH7-4" target="DF0IoFT1eUAcfcoszbH7-7" edge="1">
          <mxGeometry relative="1" as="geometry">
            <Array as="points">
              <mxPoint x="625" y="995" />
            </Array>
          </mxGeometry>
        </mxCell>
        <mxCell id="DF0IoFT1eUAcfcoszbH7-4" value="«interface»&lt;br&gt;&lt;b&gt;IProxy&lt;/b&gt;" style="html=1;" parent="1" vertex="1">
          <mxGeometry x="570" y="780" width="110" height="50" as="geometry" />
        </mxCell>
        <mxCell id="DF0IoFT1eUAcfcoszbH7-23" style="edgeStyle=orthogonalEdgeStyle;rounded=0;orthogonalLoop=1;jettySize=auto;html=1;" parent="1" source="DF0IoFT1eUAcfcoszbH7-5" target="DF0IoFT1eUAcfcoszbH7-7" edge="1">
          <mxGeometry relative="1" as="geometry" />
        </mxCell>
        <mxCell id="DF0IoFT1eUAcfcoszbH7-5" value="«interface»&lt;br&gt;&lt;b&gt;IMediator&lt;/b&gt;" style="html=1;" parent="1" vertex="1">
          <mxGeometry x="370" y="780" width="110" height="50" as="geometry" />
        </mxCell>
        <mxCell id="DF0IoFT1eUAcfcoszbH7-26" style="edgeStyle=orthogonalEdgeStyle;rounded=0;orthogonalLoop=1;jettySize=auto;html=1;entryX=0;entryY=0.5;entryDx=0;entryDy=0;" parent="1" source="DF0IoFT1eUAcfcoszbH7-6" target="DF0IoFT1eUAcfcoszbH7-7" edge="1">
          <mxGeometry relative="1" as="geometry">
            <Array as="points">
              <mxPoint x="210" y="995" />
            </Array>
          </mxGeometry>
        </mxCell>
        <mxCell id="DF0IoFT1eUAcfcoszbH7-6" value="«interface»&lt;br&gt;&lt;b&gt;ICommand&lt;/b&gt;" style="html=1;" parent="1" vertex="1">
          <mxGeometry x="160" y="780" width="110" height="50" as="geometry" />
        </mxCell>
        <object label="«interface»&lt;br&gt;&lt;b&gt;INotify&lt;/b&gt;" item="" id="DF0IoFT1eUAcfcoszbH7-7">
          <mxCell style="html=1;" parent="1" vertex="1">
            <mxGeometry x="370" y="970" width="110" height="50" as="geometry" />
          </mxCell>
        </object>
        <mxCell id="DF0IoFT1eUAcfcoszbH7-8" value="«interface»&lt;br&gt;&lt;b&gt;IObserver&lt;/b&gt;" style="html=1;" parent="1" vertex="1">
          <mxGeometry x="690" y="559" width="110" height="50" as="geometry" />
        </mxCell>
        <mxCell id="DF0IoFT1eUAcfcoszbH7-9" value="«interface»&lt;br&gt;&lt;b&gt;INotification&lt;/b&gt;" style="html=1;" parent="1" vertex="1">
          <mxGeometry x="280" y="559" width="110" height="50" as="geometry" />
        </mxCell>
        <mxCell id="DF0IoFT1eUAcfcoszbH7-48" style="edgeStyle=orthogonalEdgeStyle;rounded=0;orthogonalLoop=1;jettySize=auto;html=1;entryX=0;entryY=0.75;entryDx=0;entryDy=0;" parent="1" source="DF0IoFT1eUAcfcoszbH7-10" target="DF0IoFT1eUAcfcoszbH7-7" edge="1">
          <mxGeometry relative="1" as="geometry">
            <Array as="points">
              <mxPoint x="75" y="1008" />
            </Array>
          </mxGeometry>
        </mxCell>
        <mxCell id="DF0IoFT1eUAcfcoszbH7-10" value="«interface»&lt;br&gt;&lt;b&gt;Facade&lt;/b&gt;" style="html=1;" parent="1" vertex="1">
          <mxGeometry x="20" y="709" width="110" height="50" as="geometry" />
        </mxCell>
        <mxCell id="DF0IoFT1eUAcfcoszbH7-54" style="edgeStyle=orthogonalEdgeStyle;rounded=0;orthogonalLoop=1;jettySize=auto;html=1;" parent="1" source="DF0IoFT1eUAcfcoszbH7-11" target="DF0IoFT1eUAcfcoszbH7-1" edge="1">
          <mxGeometry relative="1" as="geometry" />
        </mxCell>
        <mxCell id="DF0IoFT1eUAcfcoszbH7-11" value="Controller" style="swimlane;fontStyle=1;align=center;verticalAlign=top;childLayout=stackLayout;horizontal=1;startSize=26;horizontalStack=0;resizeParent=1;resizeParentMax=0;resizeLast=0;collapsible=1;marginBottom=0;" parent="1" vertex="1">
          <mxGeometry x="135" y="90" width="160" height="86" as="geometry" />
        </mxCell>
        <mxCell id="DF0IoFT1eUAcfcoszbH7-12" value="+ field: type" style="text;strokeColor=none;fillColor=none;align=left;verticalAlign=top;spacingLeft=4;spacingRight=4;overflow=hidden;rotatable=0;points=[[0,0.5],[1,0.5]];portConstraint=eastwest;" parent="DF0IoFT1eUAcfcoszbH7-11" vertex="1">
          <mxGeometry y="26" width="160" height="26" as="geometry" />
        </mxCell>
        <mxCell id="DF0IoFT1eUAcfcoszbH7-13" value="" style="line;strokeWidth=1;fillColor=none;align=left;verticalAlign=middle;spacingTop=-1;spacingLeft=3;spacingRight=3;rotatable=0;labelPosition=right;points=[];portConstraint=eastwest;" parent="DF0IoFT1eUAcfcoszbH7-11" vertex="1">
          <mxGeometry y="52" width="160" height="8" as="geometry" />
        </mxCell>
        <mxCell id="DF0IoFT1eUAcfcoszbH7-14" value="+ method(type): type" style="text;strokeColor=none;fillColor=none;align=left;verticalAlign=top;spacingLeft=4;spacingRight=4;overflow=hidden;rotatable=0;points=[[0,0.5],[1,0.5]];portConstraint=eastwest;" parent="DF0IoFT1eUAcfcoszbH7-11" vertex="1">
          <mxGeometry y="60" width="160" height="26" as="geometry" />
        </mxCell>
        <mxCell id="DF0IoFT1eUAcfcoszbH7-56" style="edgeStyle=orthogonalEdgeStyle;rounded=0;orthogonalLoop=1;jettySize=auto;html=1;" parent="1" source="DF0IoFT1eUAcfcoszbH7-15" target="DF0IoFT1eUAcfcoszbH7-3" edge="1">
          <mxGeometry relative="1" as="geometry" />
        </mxCell>
        <mxCell id="DF0IoFT1eUAcfcoszbH7-15" value="Model" style="swimlane;fontStyle=1;align=center;verticalAlign=top;childLayout=stackLayout;horizontal=1;startSize=26;horizontalStack=0;resizeParent=1;resizeParentMax=0;resizeLast=0;collapsible=1;marginBottom=0;" parent="1" vertex="1">
          <mxGeometry x="545" y="90" width="160" height="86" as="geometry" />
        </mxCell>
        <mxCell id="DF0IoFT1eUAcfcoszbH7-16" value="+ field: type" style="text;strokeColor=none;fillColor=none;align=left;verticalAlign=top;spacingLeft=4;spacingRight=4;overflow=hidden;rotatable=0;points=[[0,0.5],[1,0.5]];portConstraint=eastwest;" parent="DF0IoFT1eUAcfcoszbH7-15" vertex="1">
          <mxGeometry y="26" width="160" height="26" as="geometry" />
        </mxCell>
        <mxCell id="DF0IoFT1eUAcfcoszbH7-17" value="" style="line;strokeWidth=1;fillColor=none;align=left;verticalAlign=middle;spacingTop=-1;spacingLeft=3;spacingRight=3;rotatable=0;labelPosition=right;points=[];portConstraint=eastwest;" parent="DF0IoFT1eUAcfcoszbH7-15" vertex="1">
          <mxGeometry y="52" width="160" height="8" as="geometry" />
        </mxCell>
        <mxCell id="DF0IoFT1eUAcfcoszbH7-18" value="+ method(type): type" style="text;strokeColor=none;fillColor=none;align=left;verticalAlign=top;spacingLeft=4;spacingRight=4;overflow=hidden;rotatable=0;points=[[0,0.5],[1,0.5]];portConstraint=eastwest;" parent="DF0IoFT1eUAcfcoszbH7-15" vertex="1">
          <mxGeometry y="60" width="160" height="26" as="geometry" />
        </mxCell>
        <mxCell id="DF0IoFT1eUAcfcoszbH7-55" style="edgeStyle=orthogonalEdgeStyle;rounded=0;orthogonalLoop=1;jettySize=auto;html=1;" parent="1" source="DF0IoFT1eUAcfcoszbH7-19" target="DF0IoFT1eUAcfcoszbH7-2" edge="1">
          <mxGeometry relative="1" as="geometry" />
        </mxCell>
        <mxCell id="DF0IoFT1eUAcfcoszbH7-19" value="View" style="swimlane;fontStyle=1;align=center;verticalAlign=top;childLayout=stackLayout;horizontal=1;startSize=26;horizontalStack=0;resizeParent=1;resizeParentMax=0;resizeLast=0;collapsible=1;marginBottom=0;" parent="1" vertex="1">
          <mxGeometry x="345" y="80" width="160" height="86" as="geometry" />
        </mxCell>
        <mxCell id="DF0IoFT1eUAcfcoszbH7-20" value="+ field: type" style="text;strokeColor=none;fillColor=none;align=left;verticalAlign=top;spacingLeft=4;spacingRight=4;overflow=hidden;rotatable=0;points=[[0,0.5],[1,0.5]];portConstraint=eastwest;" parent="DF0IoFT1eUAcfcoszbH7-19" vertex="1">
          <mxGeometry y="26" width="160" height="26" as="geometry" />
        </mxCell>
        <mxCell id="DF0IoFT1eUAcfcoszbH7-21" value="" style="line;strokeWidth=1;fillColor=none;align=left;verticalAlign=middle;spacingTop=-1;spacingLeft=3;spacingRight=3;rotatable=0;labelPosition=right;points=[];portConstraint=eastwest;" parent="DF0IoFT1eUAcfcoszbH7-19" vertex="1">
          <mxGeometry y="52" width="160" height="8" as="geometry" />
        </mxCell>
        <mxCell id="DF0IoFT1eUAcfcoszbH7-22" value="+ method(type): type" style="text;strokeColor=none;fillColor=none;align=left;verticalAlign=top;spacingLeft=4;spacingRight=4;overflow=hidden;rotatable=0;points=[[0,0.5],[1,0.5]];portConstraint=eastwest;" parent="DF0IoFT1eUAcfcoszbH7-19" vertex="1">
          <mxGeometry y="60" width="160" height="26" as="geometry" />
        </mxCell>
        <mxCell id="DF0IoFT1eUAcfcoszbH7-30" value="«interface»Notify" style="swimlane;fontStyle=1;childLayout=stackLayout;horizontal=1;startSize=26;fillColor=none;horizontalStack=0;resizeParent=1;resizeParentMax=0;resizeLast=0;collapsible=1;marginBottom=0;" parent="1" vertex="1">
          <mxGeometry x="380" y="1040" width="250" height="78" as="geometry">
            <mxRectangle x="380" y="1040" width="90" height="26" as="alternateBounds" />
          </mxGeometry>
        </mxCell>
        <mxCell id="DF0IoFT1eUAcfcoszbH7-31" value="+ SendNotification(string,object,string): void" style="text;strokeColor=none;fillColor=none;align=left;verticalAlign=top;spacingLeft=4;spacingRight=4;overflow=hidden;rotatable=0;points=[[0,0.5],[1,0.5]];portConstraint=eastwest;" parent="DF0IoFT1eUAcfcoszbH7-30" vertex="1">
          <mxGeometry y="26" width="250" height="26" as="geometry" />
        </mxCell>
        <mxCell id="DF0IoFT1eUAcfcoszbH7-32" value="+ InitializeNotifier(string): void" style="text;strokeColor=none;fillColor=none;align=left;verticalAlign=top;spacingLeft=4;spacingRight=4;overflow=hidden;rotatable=0;points=[[0,0.5],[1,0.5]];portConstraint=eastwest;" parent="DF0IoFT1eUAcfcoszbH7-30" vertex="1">
          <mxGeometry y="52" width="250" height="26" as="geometry" />
        </mxCell>
        <mxCell id="DF0IoFT1eUAcfcoszbH7-38" value="Use" style="endArrow=open;endSize=12;dashed=1;html=1;" parent="1" edge="1">
          <mxGeometry width="160" relative="1" as="geometry">
            <mxPoint x="850" y="880" as="sourcePoint" />
            <mxPoint x="1010" y="880" as="targetPoint" />
          </mxGeometry>
        </mxCell>
        <mxCell id="DF0IoFT1eUAcfcoszbH7-39" value="Use" style="endArrow=open;endSize=12;dashed=1;html=1;" parent="1" source="DF0IoFT1eUAcfcoszbH7-1" target="DF0IoFT1eUAcfcoszbH7-9" edge="1">
          <mxGeometry width="160" relative="1" as="geometry">
            <mxPoint x="70" y="620" as="sourcePoint" />
            <mxPoint x="230" y="620" as="targetPoint" />
          </mxGeometry>
        </mxCell>
        <mxCell id="DF0IoFT1eUAcfcoszbH7-40" value="Use" style="endArrow=open;endSize=12;dashed=1;html=1;" parent="1" source="DF0IoFT1eUAcfcoszbH7-6" target="DF0IoFT1eUAcfcoszbH7-9" edge="1">
          <mxGeometry width="160" relative="1" as="geometry">
            <mxPoint x="80" y="630" as="sourcePoint" />
            <mxPoint x="240" y="630" as="targetPoint" />
          </mxGeometry>
        </mxCell>
        <mxCell id="DF0IoFT1eUAcfcoszbH7-41" value="Use" style="endArrow=open;endSize=12;dashed=1;html=1;" parent="1" source="DF0IoFT1eUAcfcoszbH7-2" target="DF0IoFT1eUAcfcoszbH7-9" edge="1">
          <mxGeometry width="160" relative="1" as="geometry">
            <mxPoint x="90" y="640" as="sourcePoint" />
            <mxPoint x="250" y="640" as="targetPoint" />
          </mxGeometry>
        </mxCell>
        <mxCell id="DF0IoFT1eUAcfcoszbH7-42" value="Use" style="endArrow=open;endSize=12;dashed=1;html=1;" parent="1" source="DF0IoFT1eUAcfcoszbH7-2" target="DF0IoFT1eUAcfcoszbH7-8" edge="1">
          <mxGeometry width="160" relative="1" as="geometry">
            <mxPoint x="100" y="650" as="sourcePoint" />
            <mxPoint x="260" y="650" as="targetPoint" />
          </mxGeometry>
        </mxCell>
        <mxCell id="DF0IoFT1eUAcfcoszbH7-43" value="Use" style="endArrow=open;endSize=12;dashed=1;html=1;" parent="1" source="DF0IoFT1eUAcfcoszbH7-5" target="DF0IoFT1eUAcfcoszbH7-9" edge="1">
          <mxGeometry width="160" relative="1" as="geometry">
            <mxPoint x="110" y="660" as="sourcePoint" />
            <mxPoint x="270" y="660" as="targetPoint" />
          </mxGeometry>
        </mxCell>
        <mxCell id="DF0IoFT1eUAcfcoszbH7-44" value="Use" style="endArrow=open;endSize=12;dashed=1;html=1;" parent="1" source="DF0IoFT1eUAcfcoszbH7-8" target="DF0IoFT1eUAcfcoszbH7-9" edge="1">
          <mxGeometry width="160" relative="1" as="geometry">
            <mxPoint x="120" y="670" as="sourcePoint" />
            <mxPoint x="280" y="670" as="targetPoint" />
          </mxGeometry>
        </mxCell>
        <mxCell id="DF0IoFT1eUAcfcoszbH7-45" value="Use" style="endArrow=open;endSize=12;dashed=1;html=1;" parent="1" source="DF0IoFT1eUAcfcoszbH7-3" target="DF0IoFT1eUAcfcoszbH7-4" edge="1">
          <mxGeometry width="160" relative="1" as="geometry">
            <mxPoint x="130" y="680" as="sourcePoint" />
            <mxPoint x="290" y="680" as="targetPoint" />
          </mxGeometry>
        </mxCell>
        <mxCell id="DF0IoFT1eUAcfcoszbH7-46" value="Use" style="endArrow=open;endSize=12;dashed=1;html=1;" parent="1" source="DF0IoFT1eUAcfcoszbH7-2" target="DF0IoFT1eUAcfcoszbH7-5" edge="1">
          <mxGeometry width="160" relative="1" as="geometry">
            <mxPoint x="140" y="690" as="sourcePoint" />
            <mxPoint x="300" y="690" as="targetPoint" />
          </mxGeometry>
        </mxCell>
        <mxCell id="DF0IoFT1eUAcfcoszbH7-47" value="Use" style="endArrow=open;endSize=12;dashed=1;html=1;" parent="1" source="DF0IoFT1eUAcfcoszbH7-1" target="DF0IoFT1eUAcfcoszbH7-6" edge="1">
          <mxGeometry width="160" relative="1" as="geometry">
            <mxPoint x="150" y="700" as="sourcePoint" />
            <mxPoint x="310" y="700" as="targetPoint" />
          </mxGeometry>
        </mxCell>
        <mxCell id="DF0IoFT1eUAcfcoszbH7-50" value="" style="line;strokeWidth=1;fillColor=none;align=left;verticalAlign=middle;spacingTop=-1;spacingLeft=3;spacingRight=3;rotatable=0;labelPosition=right;points=[];portConstraint=eastwest;dashed=1;" parent="1" vertex="1">
          <mxGeometry x="130" y="730" width="520" height="8" as="geometry" />
        </mxCell>
        <mxCell id="DF0IoFT1eUAcfcoszbH7-51" value="Use" style="endArrow=open;endSize=12;dashed=1;html=1;exitX=0.108;exitY=0.25;exitDx=0;exitDy=0;exitPerimeter=0;entryX=0.25;entryY=0;entryDx=0;entryDy=0;" parent="1" source="DF0IoFT1eUAcfcoszbH7-50" target="DF0IoFT1eUAcfcoszbH7-6" edge="1">
          <mxGeometry width="160" relative="1" as="geometry">
            <mxPoint x="860" y="890" as="sourcePoint" />
            <mxPoint x="1020" y="890" as="targetPoint" />
          </mxGeometry>
        </mxCell>
        <mxCell id="DF0IoFT1eUAcfcoszbH7-52" value="Use" style="endArrow=open;endSize=12;dashed=1;html=1;exitX=0.619;exitY=0.625;exitDx=0;exitDy=0;exitPerimeter=0;entryX=0.75;entryY=0;entryDx=0;entryDy=0;" parent="1" source="DF0IoFT1eUAcfcoszbH7-50" target="DF0IoFT1eUAcfcoszbH7-5" edge="1">
          <mxGeometry width="160" relative="1" as="geometry">
            <mxPoint x="870" y="900" as="sourcePoint" />
            <mxPoint x="1030" y="900" as="targetPoint" />
          </mxGeometry>
        </mxCell>
        <mxCell id="DF0IoFT1eUAcfcoszbH7-53" value="Use" style="endArrow=open;endSize=12;dashed=1;html=1;exitX=1;exitY=0.375;exitDx=0;exitDy=0;exitPerimeter=0;entryX=0.75;entryY=0;entryDx=0;entryDy=0;" parent="1" source="DF0IoFT1eUAcfcoszbH7-50" target="DF0IoFT1eUAcfcoszbH7-4" edge="1">
          <mxGeometry width="160" relative="1" as="geometry">
            <mxPoint x="880" y="910" as="sourcePoint" />
            <mxPoint x="1040" y="910" as="targetPoint" />
          </mxGeometry>
        </mxCell>
      </root>
    </mxGraphModel>
  </diagram>
</mxfile>
